<svg width="20" height="20" viewBox="0 0 20 20" fill="none" xmlns="http://www.w3.org/2000/svg">
<path d="M16.2256 12.397C18.311 12.397 20 14.0991 20 16.1991C20 18.2979 18.311 20 16.2256 20C14.1415 20 12.4513 18.2979 12.4513 16.1991C12.4513 14.0991 14.1415 12.397 16.2256 12.397ZM8.8719 14.5777C9.78531 14.5777 10.5268 15.3244 10.5268 16.2442C10.5268 17.1628 9.78531 17.9107 8.8719 17.9107H1.65487C0.741459 17.9107 0 17.1628 0 16.2442C0 15.3244 0.741459 14.5777 1.65487 14.5777H8.8719ZM3.77437 0C5.85972 0 7.54874 1.70211 7.54874 3.80088C7.54874 5.90088 5.85972 7.60299 3.77437 7.60299C1.69023 7.60299 0 5.90088 0 3.80088C0 1.70211 1.69023 0 3.77437 0ZM18.3463 2.13562C19.2585 2.13562 20 2.88228 20 3.80088C20 4.72071 19.2585 5.46737 18.3463 5.46737H11.1293C10.2159 5.46737 9.47445 4.72071 9.47445 3.80088C9.47445 2.88228 10.2159 2.13562 11.1293 2.13562H18.3463Z" fill="#109CE7"/>
</svg>
